<svg width="18" height="18" viewBox="0 0 18 18" fill="none" xmlns="http://www.w3.org/2000/svg">
    <path d="M14 3C14 3.55 14.45 4 15 4L17 4C17.55 4 18 4.45 18 5C18 5.55 17.55 6 17 6L14 6C12.9 6 12 5.1 12 4V1C12 0.45 12.45 0 13 0C13.55 0 14 0.45 14 1V3Z" fill="white"/>
    <path d="M15 14C14.45 14 14 14.45 14 15V17C14 17.55 13.55 18 13 18C12.45 18 12 17.55 12 17V14C12 12.9 12.9 12 14 12H17C17.55 12 18 12.45 18 13C18 13.55 17.55 14 17 14H15Z" fill="white"/>
    <path d="M4 15C4 14.45 3.55 14 3 14H0.999996C0.449996 14 0 13.55 0 13C0 12.45 0.449996 12 0.999996 12H4C5.1 12 6 12.9 6 14V17C6 17.55 5.55 18 5 18C4.45 18 4 17.55 4 17V15Z" fill="white"/>
    <path d="M3 4C3.55 4 4 3.55 4 3V0.999996C4 0.449996 4.45 0 5 0C5.55 0 6 0.449996 6 0.999996V4C6 5.1 5.1 6 4 6H1C0.45 6 0 5.55 0 5C0 4.45 0.45 4 1 4H3Z" fill="white"/>
</svg>
