<svg width="16" height="16" viewBox="0 0 16 16" fill="none" xmlns="http://www.w3.org/2000/svg">
<path d="M8 0C12.4183 0 16 3.58172 16 8C16 12.4183 12.4183 16 8 16C3.58172 16 0 12.4183 0 8C0 3.58172 3.58172 0 8 0ZM8 2C4.68629 2 2 4.68629 2 8C2 11.3137 4.68629 14 8 14C11.3137 14 14 11.3137 14 8C14 4.68629 11.3137 2 8 2ZM10.4189 5.03906C10.8095 4.64864 11.4425 4.64862 11.833 5.03906C12.1935 5.39955 12.221 5.96708 11.916 6.35938L11.833 6.45312L7.39258 10.8936C7.03213 11.2537 6.46543 11.2814 6.07324 10.9766L5.97852 10.8936L3.79199 8.70703C3.40183 8.31658 3.40183 7.68342 3.79199 7.29297C4.15248 6.93248 4.72001 6.90494 5.1123 7.20996L5.20703 7.29297L6.68555 8.77246L10.4189 5.03906Z" fill="#5CC37B"/>
</svg>
