<svg width="104" height="68" viewBox="0 0 104 68" fill="none" xmlns="http://www.w3.org/2000/svg">
<path d="M19.152 25.864C19.152 28.584 18.992 31.032 18.672 33.208C18.352 35.384 17.856 37.24 17.184 38.776C16.512 40.28 15.616 41.448 14.496 42.28C13.408 43.08 12.08 43.48 10.512 43.48C8.656 43.48 7.088 42.952 5.808 41.896C4.56 40.808 3.584 38.984 2.88 36.424C2.208 33.832 1.872 30.312 1.872 25.864C1.872 21.896 2.176 18.616 2.784 16.024C3.424 13.4 4.384 11.448 5.664 10.168C6.944 8.888 8.56 8.248 10.512 8.248C12.464 8.248 14.064 8.904 15.312 10.216C16.592 11.496 17.552 13.448 18.192 16.072C18.832 18.664 19.152 21.928 19.152 25.864ZM6.624 25.864C6.624 28.872 6.752 31.368 7.008 33.352C7.264 35.336 7.68 36.824 8.256 37.816C8.832 38.776 9.568 39.256 10.464 39.256C11.424 39.256 12.176 38.776 12.72 37.816C13.296 36.824 13.712 35.336 13.968 33.352C14.256 31.368 14.4 28.872 14.4 25.864C14.4 22.888 14.256 20.408 13.968 18.424C13.712 16.44 13.296 14.952 12.72 13.96C12.176 12.968 11.424 12.472 10.464 12.472C9.568 12.472 8.832 12.968 8.256 13.96C7.68 14.952 7.264 16.44 7.008 18.424C6.752 20.376 6.624 22.856 6.624 25.864Z" fill="#22833F"/>
<path d="M26.552 18V6.576H29.56C30.9573 6.576 31.992 6.85867 32.664 7.424C33.3467 7.98933 33.688 8.81067 33.688 9.888C33.688 10.6133 33.5227 11.2373 33.192 11.76C32.8613 12.272 32.3707 12.6667 31.72 12.944C31.08 13.2213 30.2853 13.36 29.336 13.36H27.992V18H26.552ZM25.16 15.824V14.784H30.632V15.824H25.16ZM25.16 13.36V12.144H28.824V13.36H25.16ZM29.128 12.144C29.7787 12.144 30.328 12.0747 30.776 11.936C31.2347 11.7973 31.5867 11.568 31.832 11.248C32.0773 10.928 32.2 10.4907 32.2 9.936C32.2 9.21067 31.976 8.672 31.528 8.32C31.08 7.968 30.3813 7.792 29.432 7.792H27.992V12.144H29.128Z" fill="#22833F"/>
<path d="M47.76 45H39.888V44.016L43.344 38.952C43.952 38.056 44.456 37.24 44.856 36.504C45.256 35.768 45.552 35.048 45.744 34.344C45.952 33.624 46.056 32.856 46.056 32.04C46.056 30.968 45.824 30.168 45.36 29.64C44.896 29.096 44.272 28.824 43.488 28.824C42.976 28.824 42.496 28.912 42.048 29.088C41.616 29.264 41.208 29.528 40.824 29.88L40.128 28.944C40.464 28.656 40.808 28.416 41.16 28.224C41.512 28.016 41.888 27.864 42.288 27.768C42.688 27.672 43.112 27.624 43.56 27.624C44.36 27.624 45.04 27.8 45.6 28.152C46.176 28.488 46.616 28.984 46.92 29.64C47.224 30.296 47.376 31.08 47.376 31.992C47.376 32.936 47.256 33.816 47.016 34.632C46.792 35.432 46.464 36.216 46.032 36.984C45.6 37.752 45.08 38.568 44.472 39.432L41.472 43.728V43.8H47.76V45ZM60.0312 35.16C60.0312 36.568 59.9592 37.824 59.8152 38.928C59.6712 40.016 59.4472 40.96 59.1432 41.76C58.8552 42.544 58.5032 43.2 58.0872 43.728C57.6712 44.24 57.1832 44.624 56.6232 44.88C56.0792 45.12 55.4792 45.24 54.8232 45.24C54.5352 45.24 54.2152 45.208 53.8632 45.144C53.5272 45.096 53.2552 45.032 53.0472 44.952V43.752C53.2872 43.832 53.5592 43.904 53.8632 43.968C54.1672 44.016 54.4792 44.04 54.7992 44.04C55.4712 44.04 56.0552 43.856 56.5512 43.488C57.0472 43.12 57.4552 42.6 57.7752 41.928C58.0952 41.24 58.3352 40.432 58.4952 39.504C58.6552 38.56 58.7432 37.52 58.7592 36.384H58.6872C58.5752 36.72 58.3912 37.056 58.1352 37.392C57.8952 37.728 57.5832 38.008 57.1992 38.232C56.8152 38.456 56.3512 38.568 55.8072 38.568C55.0072 38.568 54.3432 38.336 53.8152 37.872C53.3032 37.408 52.9192 36.776 52.6632 35.976C52.4232 35.16 52.3032 34.24 52.3032 33.216C52.3032 32.096 52.4472 31.12 52.7352 30.288C53.0232 29.456 53.4472 28.808 54.0072 28.344C54.5832 27.864 55.2872 27.624 56.1192 27.624C56.7752 27.624 57.3512 27.784 57.8472 28.104C58.3432 28.424 58.7512 28.904 59.0712 29.544C59.3912 30.168 59.6312 30.952 59.7912 31.896C59.9512 32.824 60.0312 33.912 60.0312 35.16ZM56.1192 28.824C55.3032 28.824 54.6792 29.2 54.2472 29.952C53.8312 30.688 53.6232 31.776 53.6232 33.216C53.6232 34.512 53.8072 35.528 54.1752 36.264C54.5592 37 55.1832 37.368 56.0472 37.368C56.6232 37.368 57.1032 37.208 57.4872 36.888C57.8872 36.568 58.1832 36.136 58.3752 35.592C58.5832 35.032 58.6872 34.408 58.6872 33.72C58.6872 33.272 58.6552 32.776 58.5912 32.232C58.5272 31.672 58.3992 31.136 58.2072 30.624C58.0312 30.096 57.7752 29.664 57.4392 29.328C57.1032 28.992 56.6632 28.824 56.1192 28.824ZM69.0658 36.408C69.0658 37.752 68.9938 38.968 68.8498 40.056C68.7218 41.128 68.5058 42.048 68.2018 42.816C67.9138 43.568 67.5218 44.152 67.0258 44.568C66.5458 44.984 65.9538 45.192 65.2498 45.192C64.3698 45.192 63.6418 44.888 63.0658 44.28C62.4898 43.656 62.0498 42.696 61.7458 41.4C61.4578 40.104 61.3138 38.456 61.3138 36.456C61.3138 34.584 61.4498 32.992 61.7218 31.68C61.9938 30.368 62.4178 29.368 62.9938 28.68C63.5858 27.976 64.3378 27.624 65.2498 27.624C66.1618 27.624 66.8978 27.976 67.4578 28.68C68.0178 29.384 68.4258 30.392 68.6818 31.704C68.9378 33.016 69.0658 34.584 69.0658 36.408ZM62.6578 36.408C62.6578 37.992 62.7458 39.352 62.9218 40.488C63.0978 41.608 63.3778 42.472 63.7618 43.08C64.1458 43.672 64.6418 43.968 65.2498 43.968C65.8578 43.968 66.3458 43.672 66.7138 43.08C67.0818 42.472 67.3458 41.6 67.5058 40.464C67.6658 39.328 67.7458 37.984 67.7458 36.432C67.7458 34.864 67.6578 33.512 67.4818 32.376C67.3218 31.24 67.0578 30.368 66.6898 29.76C66.3378 29.136 65.8578 28.824 65.2498 28.824C64.6258 28.824 64.1218 29.128 63.7378 29.736C63.3698 30.344 63.0978 31.216 62.9218 32.352C62.7458 33.472 62.6578 34.824 62.6578 36.408ZM77.9564 36.408C77.9564 37.752 77.8844 38.968 77.7404 40.056C77.6124 41.128 77.3964 42.048 77.0924 42.816C76.8044 43.568 76.4124 44.152 75.9164 44.568C75.4364 44.984 74.8444 45.192 74.1404 45.192C73.2604 45.192 72.5324 44.888 71.9564 44.28C71.3804 43.656 70.9404 42.696 70.6364 41.4C70.3484 40.104 70.2044 38.456 70.2044 36.456C70.2044 34.584 70.3404 32.992 70.6124 31.68C70.8844 30.368 71.3084 29.368 71.8844 28.68C72.4764 27.976 73.2284 27.624 74.1404 27.624C75.0524 27.624 75.7884 27.976 76.3484 28.68C76.9084 29.384 77.3164 30.392 77.5724 31.704C77.8284 33.016 77.9564 34.584 77.9564 36.408ZM71.5484 36.408C71.5484 37.992 71.6364 39.352 71.8124 40.488C71.9884 41.608 72.2684 42.472 72.6524 43.08C73.0364 43.672 73.5324 43.968 74.1404 43.968C74.7484 43.968 75.2364 43.672 75.6044 43.08C75.9724 42.472 76.2364 41.6 76.3964 40.464C76.5564 39.328 76.6364 37.984 76.6364 36.432C76.6364 34.864 76.5484 33.512 76.3724 32.376C76.2124 31.24 75.9484 30.368 75.5804 29.76C75.2284 29.136 74.7484 28.824 74.1404 28.824C73.5164 28.824 73.0124 29.128 72.6284 29.736C72.2604 30.344 71.9884 31.216 71.8124 32.352C71.6364 33.472 71.5484 34.824 71.5484 36.408ZM83.3396 45V27.864H86.0516C87.6676 27.864 88.8596 28.248 89.6276 29.016C90.4116 29.768 90.8036 31 90.8036 32.712C90.8036 33.912 90.6276 34.896 90.2756 35.664C89.9396 36.432 89.4196 37.008 88.7156 37.392C88.0116 37.76 87.1156 37.944 86.0276 37.944H84.6596V45H83.3396ZM81.7556 41.352V40.272H87.9956V41.352H81.7556ZM81.7556 37.944V36.864H84.5396V37.944H81.7556ZM86.0036 36.864C86.8036 36.864 87.4516 36.728 87.9476 36.456C88.4596 36.184 88.8356 35.744 89.0756 35.136C89.3316 34.528 89.4596 33.736 89.4596 32.76C89.4596 31.416 89.1716 30.464 88.5956 29.904C88.0356 29.328 87.1716 29.04 86.0036 29.04H84.6596V36.864H86.0036Z" fill="#747474"/>
<path d="M39 37.344H91.5716V38.544H39V37.344Z" fill="#747474"/>
<path d="M0.12 66.68V64.112H0.792C0.976 63.888 1.124 63.652 1.236 63.404C1.356 63.156 1.452 62.884 1.524 62.588C1.596 62.284 1.648 61.944 1.68 61.568C1.696 61.424 1.708 61.28 1.716 61.136C1.732 60.984 1.744 60.804 1.752 60.596C1.768 60.38 1.784 60.112 1.8 59.792C1.816 59.464 1.832 59.056 1.848 58.568H6.192V64.112H7.164V66.68H6.144V65H1.14V66.68H0.12ZM1.932 64.112H5.148V59.456H2.772C2.764 59.704 2.752 59.948 2.736 60.188C2.72 60.428 2.704 60.66 2.688 60.884C2.672 61.1 2.656 61.308 2.64 61.508C2.592 62.1 2.508 62.604 2.388 63.02C2.276 63.436 2.124 63.8 1.932 64.112ZM11.2291 65.12C10.8051 65.12 10.4131 65.048 10.0531 64.904C9.69306 64.752 9.37706 64.532 9.10506 64.244C8.84106 63.956 8.63306 63.608 8.48106 63.2C8.33706 62.784 8.26506 62.308 8.26506 61.772C8.26506 61.06 8.38506 60.46 8.62506 59.972C8.87306 59.476 9.22106 59.1 9.66906 58.844C10.1171 58.58 10.6491 58.448 11.2651 58.448C11.8491 58.448 12.3611 58.58 12.8011 58.844C13.2491 59.1 13.6011 59.476 13.8571 59.972C14.1131 60.468 14.2411 61.072 14.2411 61.784C14.2411 62.312 14.1691 62.784 14.0251 63.2C13.8891 63.616 13.6891 63.968 13.4251 64.256C13.1611 64.536 12.8411 64.752 12.4651 64.904C12.0971 65.048 11.6851 65.12 11.2291 65.12ZM11.2531 64.244C11.8931 64.244 12.3651 64.024 12.6691 63.584C12.9731 63.136 13.1251 62.536 13.1251 61.784C13.1251 61.016 12.9731 60.416 12.6691 59.984C12.3651 59.544 11.8891 59.324 11.2411 59.324C10.5931 59.324 10.1211 59.54 9.82506 59.972C9.52906 60.404 9.38106 61.004 9.38106 61.772C9.38106 62.532 9.52906 63.136 9.82506 63.584C10.1291 64.024 10.6051 64.244 11.2531 64.244ZM23.8073 65L21.6113 61.772L21.5993 61.676L23.7473 58.568H24.8513L22.4873 61.976L22.4393 61.232L25.0073 65H23.8073ZM19.7513 65V58.568H20.8073V65H19.7513ZM20.7353 62.156V61.268H21.9833V62.156H20.7353ZM28.8119 65.12C28.3879 65.12 27.9959 65.048 27.6359 64.904C27.2759 64.752 26.9599 64.532 26.6879 64.244C26.4239 63.956 26.2159 63.608 26.0639 63.2C25.9199 62.784 25.8479 62.308 25.8479 61.772C25.8479 61.06 25.9679 60.46 26.2079 59.972C26.4559 59.476 26.8039 59.1 27.2519 58.844C27.6999 58.58 28.2319 58.448 28.8479 58.448C29.4319 58.448 29.9439 58.58 30.3839 58.844C30.8319 59.1 31.1839 59.476 31.4399 59.972C31.6959 60.468 31.8239 61.072 31.8239 61.784C31.8239 62.312 31.7519 62.784 31.6079 63.2C31.4719 63.616 31.2719 63.968 31.0079 64.256C30.7439 64.536 30.4239 64.752 30.0479 64.904C29.6799 65.048 29.2679 65.12 28.8119 65.12ZM28.8359 64.244C29.4759 64.244 29.9479 64.024 30.2519 63.584C30.5559 63.136 30.7079 62.536 30.7079 61.784C30.7079 61.016 30.5559 60.416 30.2519 59.984C29.9479 59.544 29.4719 59.324 28.8239 59.324C28.1759 59.324 27.7039 59.54 27.4079 59.972C27.1119 60.404 26.9639 61.004 26.9639 61.772C26.9639 62.532 27.1119 63.136 27.4079 63.584C27.7119 64.024 28.1879 64.244 28.8359 64.244ZM33.8169 65V58.568H34.8729V61.244H38.0889V58.568H39.1449V65H38.0889V62.132H34.8729V65H33.8169ZM46.784 66.68V65H41.6V58.568H42.656V64.112H45.764V58.568H46.82V64.124H47.792V66.68H46.784ZM50.8956 65.12C50.4556 65.12 50.0836 65.048 49.7796 64.904C49.4756 64.76 49.2436 64.548 49.0836 64.268C48.9316 63.988 48.8556 63.652 48.8556 63.26C48.8556 62.596 49.1076 62.084 49.6116 61.724C50.1156 61.364 50.8756 61.168 51.8916 61.136L52.9836 61.1V60.728C52.9836 60.24 52.8676 59.884 52.6356 59.66C52.4116 59.436 52.0516 59.324 51.5556 59.324C51.2596 59.324 50.9556 59.364 50.6436 59.444C50.3316 59.516 50.0036 59.628 49.6596 59.78L49.3116 58.952C49.7116 58.776 50.0916 58.648 50.4516 58.568C50.8196 58.488 51.1916 58.448 51.5676 58.448C52.3836 58.448 52.9956 58.628 53.4036 58.988C53.8116 59.348 54.0156 59.888 54.0156 60.608V65H53.2476L53.0436 64.076H52.9956C52.8036 64.316 52.6036 64.516 52.3956 64.676C52.1876 64.828 51.9596 64.94 51.7116 65.012C51.4716 65.084 51.1996 65.12 50.8956 65.12ZM51.1596 64.268C51.6716 64.268 52.0996 64.12 52.4436 63.824C52.7956 63.52 52.9716 63.052 52.9716 62.42V61.88L52.0236 61.916C51.3036 61.948 50.7756 62.068 50.4396 62.276C50.1116 62.484 49.9476 62.796 49.9476 63.212C49.9476 63.556 50.0516 63.82 50.2596 64.004C50.4676 64.18 50.7676 64.268 51.1596 64.268ZM59.9208 65V58.568H61.3608L63.6888 64.196L63.3048 64.184L65.6808 58.568H67.0968V65H66.1128V60.896C66.1128 60.728 66.1168 60.552 66.1248 60.368C66.1408 60.184 66.1568 60.004 66.1728 59.828H66.1368L63.9048 65H63.0408L60.9048 59.828H60.8688C60.8848 60.004 60.8928 60.184 60.8928 60.368C60.9008 60.552 60.9048 60.74 60.9048 60.932V65H59.9208ZM72.1837 65.12C71.5757 65.12 71.0357 64.996 70.5637 64.748C70.0997 64.5 69.7357 64.132 69.4717 63.644C69.2157 63.148 69.0877 62.544 69.0877 61.832C69.0877 61.128 69.2037 60.524 69.4357 60.02C69.6757 59.516 70.0077 59.128 70.4317 58.856C70.8637 58.584 71.3637 58.448 71.9317 58.448C72.4837 58.448 72.9557 58.568 73.3477 58.808C73.7477 59.048 74.0517 59.388 74.2597 59.828C74.4757 60.26 74.5837 60.768 74.5837 61.352V62.012H70.1917C70.2157 62.732 70.4037 63.28 70.7557 63.656C71.1077 64.032 71.5997 64.22 72.2317 64.22C72.6397 64.22 72.9997 64.184 73.3117 64.112C73.6317 64.032 73.9597 63.92 74.2957 63.776V64.7C73.9677 64.844 73.6437 64.948 73.3237 65.012C73.0037 65.084 72.6237 65.12 72.1837 65.12ZM70.2157 61.148H73.4677C73.4677 60.78 73.4117 60.46 73.2997 60.188C73.1877 59.916 73.0157 59.704 72.7837 59.552C72.5597 59.392 72.2717 59.312 71.9197 59.312C71.4237 59.312 71.0277 59.476 70.7317 59.804C70.4437 60.124 70.2717 60.572 70.2157 61.148ZM79.1571 65.12C78.1971 65.12 77.4451 64.84 76.9011 64.28C76.3651 63.72 76.0971 62.908 76.0971 61.844C76.0971 61.132 76.2211 60.524 76.4691 60.02C76.7171 59.516 77.0691 59.128 77.5251 58.856C77.9891 58.584 78.5451 58.448 79.1931 58.448C79.5051 58.448 79.8171 58.48 80.1291 58.544C80.4411 58.608 80.7131 58.704 80.9451 58.832L80.6211 59.66C80.3731 59.548 80.1411 59.468 79.9251 59.42C79.7091 59.364 79.4651 59.336 79.1931 59.336C78.5451 59.336 78.0491 59.552 77.7051 59.984C77.3611 60.408 77.1891 61.024 77.1891 61.832C77.1891 62.632 77.3611 63.232 77.7051 63.632C78.0491 64.032 78.5691 64.232 79.2651 64.232C79.5051 64.232 79.7571 64.208 80.0211 64.16C80.2851 64.112 80.5411 64.04 80.7891 63.944V64.832C80.5891 64.92 80.3451 64.988 80.0571 65.036C79.7691 65.092 79.4691 65.12 79.1571 65.12ZM82.1419 65L84.2419 61.988L84.3499 62.444C83.7499 62.38 83.2819 62.18 82.9459 61.844C82.6179 61.5 82.4579 61.052 82.4659 60.5C82.4659 59.892 82.6659 59.42 83.0659 59.084C83.4659 58.74 84.0259 58.568 84.7459 58.568H87.6379V65H86.5819V62.516H85.0459L83.3539 65H82.1419ZM85.0819 61.652H86.5819V59.444H84.8779C84.4379 59.444 84.1059 59.536 83.8819 59.72C83.6579 59.896 83.5499 60.16 83.5579 60.512C83.5499 60.888 83.6739 61.172 83.9299 61.364C84.1859 61.556 84.5699 61.652 85.0819 61.652ZM95.2637 66.68V65H90.0797V58.568H91.1357V64.112H94.2437V58.568H95.2997V64.124H96.2717V66.68H95.2637ZM99.3753 65.12C98.9353 65.12 98.5633 65.048 98.2593 64.904C97.9553 64.76 97.7233 64.548 97.5633 64.268C97.4113 63.988 97.3353 63.652 97.3353 63.26C97.3353 62.596 97.5873 62.084 98.0913 61.724C98.5953 61.364 99.3553 61.168 100.371 61.136L101.463 61.1V60.728C101.463 60.24 101.347 59.884 101.115 59.66C100.891 59.436 100.531 59.324 100.035 59.324C99.7393 59.324 99.4353 59.364 99.1233 59.444C98.8113 59.516 98.4833 59.628 98.1393 59.78L97.7913 58.952C98.1913 58.776 98.5713 58.648 98.9313 58.568C99.2993 58.488 99.6713 58.448 100.047 58.448C100.863 58.448 101.475 58.628 101.883 58.988C102.291 59.348 102.495 59.888 102.495 60.608V65H101.727L101.523 64.076H101.475C101.283 64.316 101.083 64.516 100.875 64.676C100.667 64.828 100.439 64.94 100.191 65.012C99.9513 65.084 99.6793 65.12 99.3753 65.12ZM99.6393 64.268C100.151 64.268 100.579 64.12 100.923 63.824C101.275 63.52 101.451 63.052 101.451 62.42V61.88L100.503 61.916C99.7833 61.948 99.2553 62.068 98.9193 62.276C98.5913 62.484 98.4273 62.796 98.4273 63.212C98.4273 63.556 98.5313 63.82 98.7393 64.004C98.9473 64.18 99.2473 64.268 99.6393 64.268Z" fill="#22833F"/>
</svg>
