<svg width="16" height="16" viewBox="0 0 16 16" fill="none" xmlns="http://www.w3.org/2000/svg">
<g clip-path="url(#clip0_4823_36119)">
<path d="M12.8181 10.1745L11.1247 9.98115C10.7181 9.93448 10.3181 10.0745 10.0314 10.3611L8.80474 11.5878C6.91807 10.6278 5.37141 9.08781 4.41141 7.19448L5.64474 5.96115C5.93141 5.67448 6.07141 5.27448 6.02474 4.86781L5.83141 3.18781C5.75141 2.51448 5.18474 2.00781 4.50474 2.00781H3.35141C2.59807 2.00781 1.97141 2.63448 2.01807 3.38781C2.37141 9.08115 6.92474 13.6278 12.6114 13.9811C13.3647 14.0278 13.9914 13.4011 13.9914 12.6478V11.4945C13.9981 10.8211 13.4914 10.2545 12.8181 10.1745Z" fill="#2D2D2D"/>
</g>
<defs>
<clipPath id="clip0_4823_36119">
<rect width="16" height="16" fill="white"/>
</clipPath>
</defs>
</svg>
