<svg width="16" height="16" viewBox="0 0 16 16" fill="none" xmlns="http://www.w3.org/2000/svg">
<path d="M0 8C0 12.4183 3.58172 16 8 16C12.4183 16 16 12.4183 16 8C16 3.58172 12.4183 0 8 0C3.58172 0 0 3.58172 0 8Z" fill="#0088CC"/>
<path d="M3.6187 8.01348C6.03462 7.02563 7.6456 6.37437 8.45167 6.05972C10.7531 5.16132 11.2314 5.00526 11.5431 5.00005C11.6116 4.99897 11.7649 5.01492 11.8642 5.09053C11.948 5.15438 11.9711 5.24063 11.9821 5.30116C11.9932 5.3617 12.0069 5.49959 11.996 5.60734C11.8713 6.83719 11.3316 9.82169 11.0571 11.1991C10.9409 11.782 10.7122 11.9774 10.4907 11.9965C10.0095 12.0381 9.64402 11.698 9.1779 11.4113C8.44851 10.9626 8.03645 10.6832 7.32845 10.2453C6.51024 9.73931 7.04065 9.46118 7.50695 9.00664C7.62898 8.88769 9.74942 7.07758 9.79046 6.91338C9.79559 6.89284 9.80036 6.81629 9.7519 6.77587C9.70344 6.73544 9.63193 6.74927 9.58032 6.76026C9.50716 6.77584 8.34195 7.49865 6.08469 8.92867C5.75395 9.14182 5.45437 9.24567 5.18596 9.24023C4.89007 9.23423 4.32087 9.08321 3.89774 8.95413C3.37875 8.7958 2.96626 8.71209 3.00218 8.44319C3.02089 8.30313 3.2264 8.1599 3.6187 8.01348Z" fill="white"/>
</svg>
