<svg width="16" height="16" viewBox="0 0 16 16" fill="none" xmlns="http://www.w3.org/2000/svg">
<path d="M16 8C16 3.58172 12.4183 0 8 0C3.58172 0 0 3.58172 0 8C0 12.4183 3.58172 16 8 16C12.4183 16 16 12.4183 16 8Z" fill="#0077FF"/>
<path d="M3 7.8C3 5.53667 3 4.40667 3.7 3.7C4.41 3 5.54 3 7.8 3H8.2C10.4633 3 11.5933 3 12.3 3.7C13 4.41 13 5.54 13 7.8V8.2C13 10.4633 13 11.5933 12.3 12.3C11.59 13 10.46 13 8.2 13H7.8C5.53667 13 4.40667 13 3.7 12.3C3 11.59 3 10.46 3 8.2V7.8Z" fill="#0077FF"/>
<path d="M8.39624 10.7821C5.35928 10.7821 3.62768 8.70045 3.55664 5.23101H5.084C5.13284 7.77527 6.25172 8.85169 7.13972 9.07409V5.23101H8.57385V7.42388C9.44853 7.33047 10.372 6.32967 10.6828 5.22656H12.1125C11.996 5.79758 11.7631 6.33838 11.4285 6.81518C11.0939 7.29198 10.6647 7.69452 10.1678 7.99767C10.7223 8.27417 11.212 8.66529 11.6047 9.14525C11.9973 9.62521 12.2839 10.1831 12.4455 10.7821H10.8693C10.5319 9.72794 9.68829 8.90951 8.57385 8.79831V10.7821H8.40068H8.39624Z" fill="white"/>
</svg>
