<svg width="16" height="16" viewBox="0 0 16 16" fill="none" xmlns="http://www.w3.org/2000/svg">
<path d="M0 8C0 12.4183 3.58172 16 8 16C12.4183 16 16 12.4183 16 8C16 3.58172 12.4183 0 8 0C3.58172 0 0 3.58172 0 8Z" fill="#25D366"/>
<path fill-rule="evenodd" clip-rule="evenodd" d="M11.5 4.4375C10.5625 3.5 9.3125 3 8 3C5.25 3 3 5.25 3 8C3 8.875 3.25 9.75 3.6875 10.5L3 13L5.62501 12.3125C6.37501 12.6875 7.1875 12.9375 8 12.9375C10.75 12.9375 13 10.6875 13 7.9375C13 6.625 12.4375 5.375 11.5 4.4375ZM8 12.125C7.25 12.125 6.5 11.9375 5.875 11.5625L5.75 11.5L4.1875 11.9375L4.625 10.4375L4.5 10.25C4.0625 9.5625 3.875 8.8125 3.875 8.0625C3.875 5.8125 5.75 3.9375 8 3.9375C9.125 3.9375 10.125 4.375 10.9375 5.125C11.75 5.9375 12.125 6.9375 12.125 8.0625C12.125 10.25 10.3125 12.125 8 12.125ZM10.25 9C10.125 8.9375 9.50001 8.625 9.37501 8.625C9.25001 8.5625 9.18749 8.5625 9.12499 8.6875C9.06249 8.8125 8.81251 9.0625 8.75001 9.1875C8.68751 9.25 8.62499 9.25 8.49999 9.25C8.37499 9.1875 8.00001 9.0625 7.50001 8.625C7.12501 8.3125 6.875 7.875 6.8125 7.75C6.75 7.625 6.81251 7.5625 6.87501 7.5C6.93751 7.4375 7 7.375 7.0625 7.3125C7.125 7.25 7.12501 7.1875 7.18751 7.125C7.25001 7.0625 7.18751 7 7.18751 6.9375C7.18751 6.875 6.9375 6.25 6.8125 6C6.75 5.8125 6.62501 5.8125 6.56251 5.8125C6.50001 5.8125 6.43749 5.8125 6.31249 5.8125C6.24999 5.8125 6.12499 5.8125 5.99999 5.9375C5.87499 6.0625 5.5625 6.375 5.5625 7C5.5625 7.625 6 8.1875 6.0625 8.3125C6.125 8.375 6.93749 9.6875 8.18749 10.1875C9.24999 10.625 9.43751 10.5 9.68751 10.5C9.93751 10.5 10.4375 10.1875 10.5 9.9375C10.625 9.625 10.625 9.375 10.5625 9.375C10.5 9.0625 10.375 9.0625 10.25 9Z" fill="white"/>
</svg>
