<svg width="18" height="18" viewBox="0 0 18 18" fill="none" xmlns="http://www.w3.org/2000/svg">
    <path d="M17.5494 7.90078L17.0238 7.37475C16.8078 7.15857 16.6776 6.67336 16.7568 6.37791L16.9488 5.65912C17.0556 5.26219 17.0004 4.84604 16.7934 4.48874C16.587 4.13084 16.2553 3.87563 15.8587 3.76934L15.1399 3.57658C14.8447 3.49731 14.4901 3.14242 14.4103 2.84697L14.2183 2.12817C14.0035 1.3241 13.136 0.817882 12.3296 1.03646L11.612 1.22862C11.3354 1.30188 10.8218 1.16737 10.616 0.962002L10.0899 0.434762C9.50968 -0.144721 8.49092 -0.145321 7.90954 0.435363L7.38335 0.962002C7.17756 1.16917 6.66218 1.30309 6.38739 1.22922L5.66921 1.03646C4.86224 0.821485 3.99527 1.3253 3.77987 2.12817L3.58848 2.84637C3.50928 3.14242 3.15409 3.49791 2.8589 3.57658L2.14133 3.76874C1.74414 3.87563 1.41175 4.13144 1.20536 4.48934C0.998967 4.84724 0.944369 5.26219 1.05116 5.65791L1.24316 6.37731C1.32236 6.67336 1.19336 7.15797 0.976168 7.37415L0.451185 7.90018C0.160195 8.19203 0 8.57935 0 8.99249C0 9.40564 0.159595 9.79296 0.449985 10.0836L0.974967 10.609C1.19096 10.8258 1.32116 11.3116 1.24256 11.6071L1.05056 12.3259C0.944368 12.7228 0.999567 13.1389 1.20596 13.4962C1.41235 13.8541 1.74474 14.1094 2.14133 14.215L2.8583 14.4072C3.15469 14.4871 3.50928 14.8426 3.58908 15.1374L3.78107 15.8562C3.99587 16.6585 4.86284 17.1623 5.66981 16.9473L6.38739 16.7552C6.66458 16.6813 7.17756 16.8158 7.38395 17.0218L7.90954 17.5478C8.19993 17.8397 8.58751 18 9.0003 18C9.41309 18 9.80007 17.8397 10.0905 17.549L10.6172 17.023C10.823 16.8158 11.3294 16.6801 11.6138 16.7564L12.3302 16.9479C12.4598 16.9828 12.5936 17.0008 12.7274 17.0008H12.728C13.4252 17.0008 14.0389 16.5306 14.2189 15.8562L14.4103 15.1392C14.4901 14.8432 14.8453 14.4877 15.1405 14.4084L15.8587 14.2162C16.68 13.9947 17.169 13.1462 16.9476 12.3265L16.7562 11.6077C16.677 11.3116 16.8066 10.8264 17.0226 10.6102L17.5488 10.0842C18.1506 9.4807 18.15 8.50189 17.5494 7.90078ZM13.0238 7.01505L8.22393 11.819C8.10693 11.9361 7.95333 11.995 7.79974 11.995C7.64614 11.995 7.49255 11.9361 7.37555 11.819L4.97563 9.41705C4.74104 9.18225 4.74104 8.80274 4.97563 8.56794C5.21023 8.33314 5.58941 8.33314 5.82401 8.56794L7.79974 10.5454L12.1754 6.16594C12.41 5.93114 12.7892 5.93114 13.0238 6.16594C13.2584 6.40073 13.2584 6.78025 13.0238 7.01505Z" fill="#5CC37B"/>
</svg>
