<svg width="147" height="32" viewBox="0 0 147 32" fill="none" xmlns="http://www.w3.org/2000/svg">
<path d="M111.292 25.8749H111.477C111.915 25.8749 112.271 26.2249 112.271 26.6556V27.8283C112.271 28.2589 111.915 28.6089 111.477 28.6089H111.292C110.854 28.6089 110.497 28.2589 110.497 27.8283V26.6556C110.497 26.2249 110.854 25.8749 111.292 25.8749Z" fill="#22833F"/>
<path fill-rule="evenodd" clip-rule="evenodd" d="M80.6139 27.8167H81.642L81.131 26.4073L80.6139 27.8167Z" fill="#22833F"/>
<path d="M65.306 25.8749H65.1207C64.6818 25.8749 64.326 26.2244 64.326 26.6556V27.8283C64.326 28.2594 64.6818 28.6089 65.1207 28.6089H65.306C65.7448 28.6089 66.1006 28.2594 66.1006 27.8283V26.6556C66.1006 26.2244 65.7448 25.8749 65.306 25.8749Z" fill="#22833F"/>
<path d="M96.3117 25.8749H96.1264C95.6876 25.8749 95.3318 26.2244 95.3318 26.6556V27.8283C95.3318 28.2594 95.6876 28.6089 96.1264 28.6089H96.3117C96.7506 28.6089 97.1063 28.2594 97.1063 27.8283V26.6556C97.1063 26.2244 96.7506 25.8749 96.3117 25.8749Z" fill="#22833F"/>
<path fill-rule="evenodd" clip-rule="evenodd" d="M144.596 22.4026H38.5339C37.2065 22.4026 36.1302 23.4572 36.1302 24.7586V29.6234C36.1302 30.9248 37.2065 31.9795 38.5339 31.9795H144.596C145.923 31.9795 146.999 30.9248 146.999 29.6234V24.7586C146.999 23.4572 145.923 22.4026 144.596 22.4026H144.596ZM50.6701 29.7694C49.3604 29.7694 48.3058 28.6854 48.3058 27.1907C48.3058 25.696 49.3339 24.6119 50.7224 24.6119C51.6588 24.6119 52.2418 25.0513 52.6476 25.6606L51.7179 26.44C51.4559 26.086 51.1485 25.866 50.7095 25.866C50.0675 25.866 49.6156 26.454 49.6156 27.1907C49.6156 27.9274 50.0675 28.5154 50.7095 28.5154C51.1872 28.5154 51.4688 28.2747 51.7444 27.9134L52.7005 28.6501C52.2682 29.2947 51.6853 29.7694 50.6701 29.7694ZM59.9324 26.0146H58.5569V29.7694H57.2866V26.0146H55.911V24.8106H59.9318V26.0146H59.9324ZM67.2845 27.826C67.2845 28.3614 67.0626 28.8481 66.7043 29.2001H66.6995C66.3419 29.5514 65.8479 29.7701 65.3057 29.7701H65.1211C64.5796 29.7701 64.0855 29.5514 63.7272 29.2001L63.7225 29.1954C63.3648 28.8434 63.1423 28.3587 63.1423 27.826V26.6533C63.1423 26.1207 63.3648 25.636 63.7225 25.284V25.2793C64.0808 24.9273 64.5755 24.7093 65.1211 24.7093H65.3057C65.8513 24.7093 66.346 24.9273 66.7043 25.2793C67.0626 25.6313 67.2845 26.1173 67.2845 26.6533V27.826ZM75.3674 29.7694H74.1031V26.922L73.2162 28.7014H72.6197L71.7396 26.9367V29.7701H70.495V24.8113H71.8373L72.9312 27.0413L74.0251 24.8113H75.3674V29.7701V29.7694ZM82.3435 29.7694L82.0096 28.8841H80.2412L79.9134 29.7694H78.5772L80.5289 24.7753H81.7538L83.7055 29.7694H82.3435ZM90.9374 26.0146H89.5618V29.7694H88.2915V26.0146H86.916V24.8106H90.9367V26.0146H90.9374ZM98.2894 27.826C98.2894 28.3614 98.0675 28.8481 97.7092 29.2001H97.7045C97.3469 29.5514 96.8528 29.7701 96.3106 29.7701H96.126C95.5845 29.7701 95.0905 29.5514 94.7328 29.2001L94.7281 29.1954C94.3705 28.8434 94.1479 28.3587 94.1479 27.826V26.6533C94.1479 26.1207 94.3705 25.636 94.7281 25.284V25.2793C95.0864 24.9273 95.5811 24.7093 96.1267 24.7093H96.3113C96.8569 24.7093 97.3516 24.9273 97.7099 25.2793C98.0682 25.6313 98.2901 26.1173 98.2901 26.6533V27.826H98.2894ZM106.104 29.6987H104.833V25.944H103.766V26.1353C103.766 29.1601 103.15 29.7694 102.259 29.7694C101.925 29.7694 101.598 29.6914 101.5 29.6561L101.585 28.6007C101.644 28.6147 101.82 28.6294 101.879 28.6294C102.24 28.6294 102.58 28.4314 102.58 25.4273V24.7399H106.104V29.6987ZM113.456 27.826C113.456 28.3614 113.234 28.8481 112.875 29.2001H112.871C112.513 29.5514 112.019 29.7701 111.477 29.7701H111.292C110.751 29.7701 110.257 29.5514 109.898 29.2001L109.894 29.1954C109.536 28.8434 109.313 28.3587 109.313 27.826V26.6533C109.313 26.1207 109.536 25.636 109.894 25.284V25.2793C110.252 24.9273 110.747 24.7093 111.292 24.7093H111.476C112.022 24.7093 112.516 24.9273 112.875 25.2793C113.233 25.6313 113.455 26.1173 113.455 26.6533V27.826H113.456ZM119.968 26.0146H117.937V29.7694H116.667V24.8106H119.968V26.0146ZM127.395 29.7694H126.138V26.9787L124.363 29.7694H123.177V24.8106H124.435V27.602L126.209 24.8106H127.395V29.7694ZM134.824 29.7694H133.554V28.2674H132.998L132.074 29.7694H130.607L131.701 28.0407C131.131 27.7787 130.757 27.2754 130.757 26.5033C130.757 25.3413 131.615 24.81 132.657 24.81H134.824V29.7687V29.7694Z" fill="#22833F"/>
<path fill-rule="evenodd" clip-rule="evenodd" d="M132.034 26.6024C132.034 26.9637 132.283 27.2117 132.715 27.2117H133.553V25.979H132.722C132.296 25.979 132.034 26.1984 132.034 26.6024H132.034Z" fill="#22833F"/>
<path fill-rule="evenodd" clip-rule="evenodd" d="M96.2069 7.43076H102.208V9.64681H96.2069V7.43076Z" fill="#22833F"/>
<path fill-rule="evenodd" clip-rule="evenodd" d="M107.557 11.9925C107.625 11.1045 110.231 3.51562 110.628 3.00228C111.094 3.34429 113.371 10.8852 113.747 11.9872L107.557 11.9925ZM105.618 14.0839L115.59 14.1246L115.596 17.0166L118.026 16.9993L117.998 12.0005L116.552 11.9838C115.499 9.42711 114.48 6.62371 113.533 3.93764C112.993 2.40493 112.618 -0.0251375 110.629 0.000196503C108.396 0.0281972 108.32 2.21159 107.682 3.90763L104.612 11.9899L103.332 11.9945L103.347 17.01L105.553 17.004L105.618 14.0839Z" fill="#22833F"/>
<path fill-rule="evenodd" clip-rule="evenodd" d="M35.9627 0.121536V4.30898C35.9627 5.95702 35.998 7.19706 36.1948 7.56173C36.6501 8.40776 38.103 8.50776 39.6319 8.51243C40.8188 8.51576 42.058 8.49309 42.8737 8.51243L42.8418 11.9892L36.1541 11.9912L36.131 14.0906C37.854 14.0906 40.2692 14.0859 41.9962 14.0859C44.425 14.0859 45.3479 14.1699 45.3451 11.5885C45.3411 7.82241 45.451 3.92364 45.3384 0.122871H42.8798L42.8601 6.38503L38.4294 6.34704L38.4118 0.122204H35.9627V0.121536Z" fill="#22833F"/>
<path fill-rule="evenodd" clip-rule="evenodd" d="M78.4768 6.22402H81.9771C82.3442 6.22402 82.273 6.17735 82.2736 6.54936C82.2784 8.15207 82.2736 10.4008 82.2736 11.9268C82.2736 12.2295 82.3232 12.1808 82.0144 12.1808H78.4768V6.22469V6.22402ZM78.5114 14.1109C79.6488 14.0202 82.4229 14.2462 83.2726 13.9896C84.8347 13.5182 84.511 12.0755 84.5117 10.4241C84.5137 4.88865 85.1679 4.1313 81.2578 4.12996C75.9381 4.12863 76.232 3.53928 76.2313 8.68875C76.2313 11.5455 76.2313 15.2389 76.2313 18.081L78.4755 18.0903L78.5107 14.1109H78.5114Z" fill="#22833F"/>
<path fill-rule="evenodd" clip-rule="evenodd" d="M121.519 8.31809L121.543 6.2287H124.854C125.09 6.2287 125.064 6.18337 125.064 6.40538V8.08675C125.064 8.36609 125.109 8.31809 124.823 8.31809C123.857 8.31809 122.299 8.31809 121.519 8.31809H121.519ZM119.083 6.80338L119.081 11.7335C119.086 13.8856 119.744 14.0929 121.845 14.0876C123.539 14.0829 125.324 14.1436 127.005 14.0682L127.022 12.1862H121.519C121.519 11.6782 121.517 10.7448 121.519 10.2081C125.344 10.1081 127.226 10.7275 127.286 8.40543C127.327 6.79805 127.57 4.964 126.39 4.37266C125.585 3.96931 122.655 4.12465 121.549 4.13665C119.442 4.15998 119.083 4.79733 119.082 6.80405L119.083 6.80338Z" fill="#22833F"/>
<path fill-rule="evenodd" clip-rule="evenodd" d="M89.108 9.99439C90.0011 9.99572 91.1853 10.0004 92.0546 9.99439C92.0512 10.6691 92.0512 11.6204 92.0512 12.1245H89.1508C88.5102 12.0925 88.519 12.0878 88.4966 11.4544C88.4864 11.1724 88.4939 10.7824 88.5115 10.4531C88.5407 9.90105 88.5394 9.99372 89.1087 9.99439H89.108ZM86.7906 6.22896H92.0512V7.93767C90.7638 7.94567 89.7717 7.93767 88.9967 7.93767C86.4669 7.93767 86.3135 8.15634 86.3047 11.5891C86.3 13.4265 86.5191 14.0785 88.4898 14.0905C91.5551 14.1085 93.9492 14.6418 94.2872 12.7971L94.3279 5.93762C94.2051 4.14357 93.3941 4.11557 91.4418 4.11557C90.3614 4.11357 87.7115 4.11557 86.777 4.11557L86.7913 6.22896H86.7906Z" fill="#22833F"/>
<path fill-rule="evenodd" clip-rule="evenodd" d="M131.453 10.0002L134.96 10.0042L134.974 14.0763L137.238 14.087L137.239 4.13205H134.958L134.958 7.98816L131.436 7.98615L131.436 4.13205L129.165 4.13871L129.159 14.0903L131.445 14.0516L131.451 11.1496L131.453 10.0002Z" fill="#22833F"/>
<path fill-rule="evenodd" clip-rule="evenodd" d="M63.8136 11.0222V11.9643C63.8136 12.1183 63.6853 12.2436 63.5293 12.2436H62.035C61.9753 12.2436 61.9155 12.2436 61.8565 12.2436H60.4762C60.3194 12.2436 60.1919 12.1176 60.1919 11.9643V10.2269C60.1919 10.0729 60.3194 9.94753 60.4762 9.94753H63.5286C63.6854 9.94753 63.8129 10.0729 63.8129 10.2269V11.0222H63.8136ZM57.9097 4.14339C57.9097 5.66543 57.907 9.8422 57.9097 11.5842C57.9111 12.6476 57.8975 13.7903 59.2785 14.0316C60.1681 14.187 61.9712 14.085 62.9565 14.0856C64.1902 14.0863 65.4782 14.2396 65.9017 13.181C66.125 12.6216 66.1161 10.4149 66.0476 9.69686C65.9037 8.18882 64.9686 7.93348 63.3881 7.93348C62.5059 7.93348 61.4297 7.94282 60.1946 7.92548L60.1932 4.13205L57.9104 4.14405L57.9097 4.14339Z" fill="#22833F"/>
<path fill-rule="evenodd" clip-rule="evenodd" d="M49.1306 14.0907C49.2087 13.7881 51.655 6.93187 51.7399 6.83254L54.6918 14.0814L56.9102 14.0761L54.892 8.49258L53.8171 5.77851C53.4276 4.80915 53.1758 4.06313 51.8892 4.02313C50.8889 3.99179 50.2347 4.67515 49.8384 5.73651L48.7934 8.53592L46.8016 14.0901H49.1313L49.1306 14.0907Z" fill="#22833F"/>
<path fill-rule="evenodd" clip-rule="evenodd" d="M66.2606 6.17232L69.3605 6.17699L69.3747 14.0925H71.758L71.7797 6.17433L74.881 6.16366L74.8247 4.12627L66.2498 4.12827L66.2606 6.17232Z" fill="#22833F"/>
<path fill-rule="evenodd" clip-rule="evenodd" d="M138.564 6.16899L141.671 6.17099L141.669 14.0905H143.916L143.921 6.17298L146.999 6.17099V4.12627L138.564 4.13293V6.16899Z" fill="#22833F"/>
<path fill-rule="evenodd" clip-rule="evenodd" d="M17.3014 0.624062C17.3014 0.624062 7.93528 -1.36066 3.4646 1.82209C-1.00675 5.00484 -0.560903 10.5243 1.50614 17.6105C3.57318 24.6974 5.95645 28.5548 7.0653 29.1755C8.17415 29.7962 8.67971 29.6168 9.74445 28.5501C10.8092 27.4828 11.7606 24.6367 13.202 24.362C14.6433 24.0873 16.2564 25.0954 17.2186 27.8061C18.1802 30.5168 18.5691 30.8562 19.4764 31.5989C20.3837 32.3416 23.985 33.1323 26.6635 23.3707C29.342 13.6091 31.6567 6.28221 28.4225 2.89879C25.4447 -0.215961 20.6524 1.21875 18.4978 1.88743C16.7097 2.44211 15.328 2.94346 14.4045 3.39414C13.6756 3.75015 11.7911 4.87951 11.7911 4.87951C11.7911 4.87951 12.7887 3.59947 14.2959 2.49211C16.1437 1.13541 17.3021 0.622731 17.3021 0.622731L17.3014 0.624062Z" fill="#22833F"/>
<path fill-rule="evenodd" clip-rule="evenodd" d="M24.2415 9.93409L23.7964 8.94806C23.7964 8.94806 23.7943 8.94339 23.7923 8.94073C23.7794 8.91806 23.7556 8.87405 23.7346 8.84338C23.7346 9.62407 24.2008 11.2621 23.3098 12.7362C21.8874 15.0902 18.8099 12.8222 15.6775 13.5388C14.5815 13.7895 13.5243 14.5762 13.2121 15.5642C13.1897 15.6349 13.2474 15.7056 13.3227 15.7009C14.1859 15.6416 15.4413 15.2769 17.1589 16.1016C19.627 17.2876 19.7573 20.4404 19.2538 22.7998C18.9144 24.3925 18.3241 25.3765 18.1008 26.0558C18.073 26.1392 18.1558 26.2165 18.2406 26.1878C19.3861 25.8018 21.0595 24.2698 21.7375 23.4831C24.477 20.303 25.7759 15.4296 24.6046 11.1814C24.4858 10.7501 24.3596 10.2901 24.2456 9.94475C24.2442 9.94141 24.2429 9.93742 24.2415 9.93409Z" fill="white"/>
<path fill-rule="evenodd" clip-rule="evenodd" d="M11.8452 12.9695C12.4784 12.8648 13.6001 12.7041 14.3045 12.9315C14.3839 12.9568 14.4626 12.8901 14.4457 12.8095C14.1729 11.5181 12.2741 10.6028 10.7364 10.6028C7.79868 10.6028 4.17559 12.8608 3.82204 7.67001C3.7915 7.218 3.92247 6.83399 4.01069 6.40131C4.03512 6.2813 3.8675 6.22263 3.80914 6.33064C3.79082 6.36397 3.77046 6.40331 3.74671 6.44931C3.06878 7.77668 2.91406 9.6674 2.72608 11.0381C2.30128 14.1302 3.80643 18.2663 5.8979 20.6243C7.07054 21.9464 7.78986 22.5744 9.41445 23.4358C9.49317 23.4778 9.58817 23.4124 9.57392 23.3251C9.49521 22.8457 9.30927 22.6764 9.13351 22.2337C7.80615 18.8836 7.27955 13.7208 11.8452 12.9681V12.9695Z" fill="white"/>
<path fill-rule="evenodd" clip-rule="evenodd" d="M8.66213 9.53304C11.9907 8.74902 11.4119 5.01225 9.11137 5.01225H8.29907C7.25741 5.01225 5.86151 6.16428 5.86151 7.24698C5.86151 9.28037 7.40942 9.82772 8.66213 9.53304Z" fill="white"/>
<path fill-rule="evenodd" clip-rule="evenodd" d="M21.101 11.8412C23.0968 10.2399 21.1675 7.72646 19.0252 7.72646C17.9143 7.72646 16.7505 8.42914 16.7505 9.4825C16.7505 12.1986 19.6943 12.9706 21.1017 11.8412H21.101Z" fill="white"/>
<path fill-rule="evenodd" clip-rule="evenodd" d="M28.5529 5.54945C27.8017 1.36401 21.5178 2.41403 18.9153 3.94874C18.8087 4.01141 18.8766 4.17208 18.9974 4.14341C19.3455 4.06074 19.6109 3.9334 20.094 3.8294C21.7682 3.46872 24.0639 3.36672 25.4231 3.99474C27.6972 5.04543 27.9428 6.77948 27.9605 9.13887C27.9611 9.25021 28.1125 9.28554 28.1654 9.18754C28.371 8.80553 28.4579 8.32419 28.5495 7.82551C28.6764 7.13749 28.6778 6.24147 28.5536 5.54945H28.5529Z" fill="white"/>
</svg>
