<svg width="217" height="48" viewBox="0 0 217 48" fill="none" xmlns="http://www.w3.org/2000/svg">
    <path d="M163.999 38.8125H164.271C164.917 38.8125 165.442 39.3375 165.442 39.9835V41.7425C165.442 42.3885 164.917 42.9135 164.271 42.9135H163.999C163.353 42.9135 162.828 42.3885 162.828 41.7425V39.9835C162.828 39.3375 163.353 38.8125 163.999 38.8125Z" fill="#5CC37B"/>
    <path fill-rule="evenodd" clip-rule="evenodd" d="M118.793 41.7233H120.308L119.555 39.6094L118.793 41.7233Z" fill="#5CC37B"/>
    <path d="M96.2331 38.8125H95.9601C95.3133 38.8125 94.7891 39.3368 94.7891 39.9835V41.7425C94.7891 42.3892 95.3133 42.9135 95.9601 42.9135H96.2331C96.8798 42.9135 97.404 42.3892 97.404 41.7425V39.9835C97.404 39.3368 96.8798 38.8125 96.2331 38.8125Z" fill="#5CC37B"/>
    <path d="M141.924 38.8125H141.651C141.005 38.8125 140.48 39.3368 140.48 39.9835V41.7425C140.48 42.3892 141.005 42.9135 141.651 42.9135H141.924C142.571 42.9135 143.095 42.3892 143.095 41.7425V39.9835C143.095 39.3368 142.571 38.8125 141.924 38.8125Z" fill="#5CC37B"/>
    <path fill-rule="evenodd" clip-rule="evenodd" d="M213.077 33.6016H56.7842C54.8282 33.6016 53.2422 35.1835 53.2422 37.1355V44.4324C53.2422 46.3844 54.8282 47.9664 56.7842 47.9664H213.076C215.032 47.9664 216.618 46.3844 216.618 44.4324V37.1355C216.618 35.1835 215.032 33.6016 213.076 33.6016H213.077ZM74.668 44.6515C72.738 44.6515 71.184 43.0255 71.184 40.7835C71.184 38.5415 72.699 36.9155 74.745 36.9155C76.125 36.9155 76.9839 37.5745 77.5819 38.4885L76.212 39.6575C75.826 39.1265 75.373 38.7965 74.726 38.7965C73.78 38.7965 73.114 39.6785 73.114 40.7835C73.114 41.8885 73.78 42.7705 74.726 42.7705C75.43 42.7705 75.845 42.4095 76.251 41.8675L77.6599 42.9725C77.023 43.9395 76.164 44.6515 74.668 44.6515ZM88.3168 39.0195H86.2899V44.6515H84.4179V39.0195H82.3909V37.2135H88.3158V39.0195H88.3168ZM99.1507 41.7365C99.1507 42.5395 98.8237 43.2695 98.2957 43.7975H98.2887C97.7617 44.3245 97.0338 44.6525 96.2348 44.6525H95.9628C95.1648 44.6525 94.4368 44.3245 93.9088 43.7975L93.9018 43.7905C93.3748 43.2625 93.0468 42.5355 93.0468 41.7365V39.9775C93.0468 39.1785 93.3748 38.4515 93.9018 37.9235V37.9165C94.4298 37.3885 95.1588 37.0615 95.9628 37.0615H96.2348C97.0388 37.0615 97.7677 37.3885 98.2957 37.9165C98.8237 38.4445 99.1507 39.1735 99.1507 39.9775V41.7365ZM111.062 44.6515H109.199V40.3805L107.892 43.0495H107.013L105.716 40.4025V44.6525H103.882V37.2145H105.86L107.472 40.5595L109.084 37.2145H111.062V44.6525V44.6515ZM121.342 44.6515L120.85 43.3235H118.244L117.761 44.6515H115.792L118.668 37.1605H120.473L123.348 44.6515H121.342ZM134.005 39.0195H131.978V44.6515H130.106V39.0195H128.079V37.2135H134.004V39.0195H134.005ZM144.839 41.7365C144.839 42.5395 144.512 43.2695 143.984 43.7975H143.977C143.45 44.3245 142.722 44.6525 141.923 44.6525H141.651C140.853 44.6525 140.125 44.3245 139.598 43.7975L139.591 43.7905C139.064 43.2625 138.736 42.5355 138.736 41.7365V39.9775C138.736 39.1785 139.064 38.4515 139.591 37.9235V37.9165C140.119 37.3885 140.848 37.0615 141.652 37.0615H141.924C142.728 37.0615 143.457 37.3885 143.985 37.9165C144.513 38.4445 144.84 39.1735 144.84 39.9775V41.7365H144.839ZM156.354 44.5454H154.482V38.9135H152.909V39.2005C152.909 43.7375 152.002 44.6515 150.689 44.6515C150.197 44.6515 149.714 44.5344 149.57 44.4814L149.695 42.8985C149.782 42.9195 150.042 42.9415 150.129 42.9415C150.66 42.9415 151.162 42.6445 151.162 38.1385V37.1075H156.354V44.5454ZM167.188 41.7365C167.188 42.5395 166.861 43.2695 166.333 43.7975H166.326C165.799 44.3245 165.071 44.6525 164.272 44.6525H164C163.202 44.6525 162.474 44.3245 161.946 43.7975L161.939 43.7905C161.412 43.2625 161.084 42.5355 161.084 41.7365V39.9775C161.084 39.1785 161.412 38.4515 161.939 37.9235V37.9165C162.467 37.3885 163.196 37.0615 163.999 37.0615H164.271C165.075 37.0615 165.804 37.3885 166.332 37.9165C166.86 38.4445 167.187 39.1735 167.187 39.9775V41.7365H167.188ZM176.784 39.0195H173.792V44.6515H171.92V37.2135H176.784V39.0195ZM187.729 44.6515H185.876V40.4655L183.261 44.6515H181.514V37.2135H183.367V41.4005L185.982 37.2135H187.729V44.6515ZM198.677 44.6515H196.805V42.3985H195.985L194.624 44.6515H192.462L194.074 42.0585C193.234 41.6655 192.684 40.9105 192.684 39.7525C192.684 38.0095 193.948 37.2125 195.483 37.2125H198.677V44.6505V44.6515Z" fill="#5CC37B"/>
    <path fill-rule="evenodd" clip-rule="evenodd" d="M194.562 39.9037C194.562 40.4457 194.93 40.8177 195.566 40.8177H196.801V38.9688H195.576C194.949 38.9688 194.564 39.2977 194.564 39.9037H194.562Z" fill="#5CC37B"/>
    <path fill-rule="evenodd" clip-rule="evenodd" d="M141.77 11.1484H150.612V14.4724H141.77V11.1484Z" fill="#5CC37B"/>
    <path fill-rule="evenodd" clip-rule="evenodd" d="M158.496 17.9881C158.596 16.6561 162.436 5.27325 163.021 4.50325C163.707 5.01625 167.063 16.3271 167.617 17.9801L158.496 17.9881ZM155.639 21.1251L170.333 21.1861L170.342 25.524L173.923 25.498L173.882 18.0001L171.75 17.9751C170.198 14.1402 168.697 9.9352 167.302 5.90624C166.506 3.60727 165.953 -0.0377049 163.023 0.000294745C159.731 0.0422943 159.62 3.31726 158.679 5.86124L154.157 17.9841L152.27 17.9911L152.292 25.514L155.543 25.505L155.639 21.1251Z" fill="#5CC37B"/>
    <path fill-rule="evenodd" clip-rule="evenodd" d="M52.9961 0.179688V6.46063C52.9961 8.9326 53.0481 10.7926 53.3381 11.3396C54.0091 12.6086 56.1501 12.7586 58.403 12.7656C60.152 12.7706 61.978 12.7366 63.18 12.7656L63.133 17.9805L53.2781 17.9835L53.2441 21.1325C55.7831 21.1325 59.342 21.1255 61.887 21.1255C65.466 21.1255 66.826 21.2515 66.822 17.3795C66.816 11.7306 66.978 5.88263 66.812 0.181689H63.189L63.16 9.5746L56.6311 9.5176L56.6051 0.180688H52.9961V0.179688Z" fill="#5CC37B"/>
    <path fill-rule="evenodd" clip-rule="evenodd" d="M115.641 9.33663H120.799C121.34 9.33663 121.235 9.26663 121.236 9.82462C121.243 12.2286 121.236 15.6016 121.236 17.8905C121.236 18.3445 121.309 18.2715 120.854 18.2715H115.641V9.33763V9.33663ZM115.692 21.1665C117.368 21.0305 121.456 21.3695 122.708 20.9845C125.01 20.2775 124.533 18.1135 124.534 15.6366C124.537 7.33365 125.501 6.19766 119.739 6.19566C111.9 6.19366 112.333 5.30966 112.332 13.0336C112.332 17.3185 112.332 22.8585 112.332 27.1214L115.639 27.1355L115.691 21.1665H115.692Z" fill="#5CC37B"/>
    <path fill-rule="evenodd" clip-rule="evenodd" d="M179.071 12.4793L179.106 9.34537H183.984C184.332 9.34537 184.294 9.27737 184.294 9.61037V12.1323C184.294 12.5513 184.359 12.4793 183.938 12.4793C182.514 12.4793 180.22 12.4793 179.07 12.4793H179.071ZM175.48 10.2074L175.477 17.6023C175.485 20.8303 176.454 21.1413 179.551 21.1333C182.046 21.1263 184.676 21.2172 187.154 21.1043L187.179 18.2813H179.071C179.071 17.5193 179.067 16.1193 179.071 15.3143C184.706 15.1643 187.479 16.0933 187.567 12.6103C187.628 10.1994 187.986 7.44839 186.247 6.5614C185.061 5.95641 180.744 6.1894 179.115 6.2074C176.01 6.2424 175.48 7.19839 175.479 10.2084L175.48 10.2074Z" fill="#5CC37B"/>
    <path fill-rule="evenodd" clip-rule="evenodd" d="M131.307 14.9911C132.623 14.9931 134.368 15.0001 135.649 14.9911C135.644 16.0031 135.644 17.4301 135.644 18.1861H131.37C130.426 18.1381 130.439 18.1311 130.406 17.1811C130.391 16.7581 130.402 16.1731 130.428 15.6791C130.471 14.8511 130.469 14.9901 131.308 14.9911H131.307ZM127.892 9.34317H135.644V11.9061C133.747 11.9181 132.285 11.9061 131.143 11.9061C127.415 11.9061 127.189 12.2341 127.176 17.3831C127.169 20.1391 127.492 21.1171 130.396 21.1351C134.913 21.1621 138.441 21.962 138.939 19.1951L138.999 8.90618C138.818 6.2152 137.623 6.17321 134.746 6.17321C133.154 6.17021 129.249 6.17321 127.872 6.17321L127.893 9.34317H127.892Z" fill="#5CC37B"/>
    <path fill-rule="evenodd" clip-rule="evenodd" d="M193.708 14.9972L198.875 15.0032L198.897 21.1112L202.232 21.1272L202.234 6.19531H198.873L198.872 11.9793L193.683 11.9763L193.682 6.19531L190.336 6.20531L190.328 21.1322L193.696 21.0742L193.705 16.7212L193.708 14.9972Z" fill="#5CC37B"/>
    <path fill-rule="evenodd" clip-rule="evenodd" d="M94.0337 16.5302V17.9432C94.0337 18.1742 93.8447 18.3622 93.6147 18.3622H91.4128C91.3248 18.3622 91.2368 18.3622 91.1498 18.3622H89.1158C88.8848 18.3622 88.6968 18.1732 88.6968 17.9432V15.3372C88.6968 15.1062 88.8848 14.9182 89.1158 14.9182H93.6137C93.8447 14.9182 94.0327 15.1062 94.0327 15.3372V16.5302H94.0337ZM85.3338 6.21232C85.3338 8.49529 85.3298 14.7602 85.3338 17.3732C85.3358 18.9682 85.3158 20.6822 87.3508 21.0442C88.6618 21.2772 91.3187 21.1242 92.7707 21.1252C94.5887 21.1262 96.4867 21.3562 97.1107 19.7682C97.4397 18.9292 97.4267 15.6192 97.3257 14.5422C97.1137 12.2802 95.7357 11.8973 93.4067 11.8973C92.1067 11.8973 90.5208 11.9113 88.7008 11.8853L88.6988 6.19531L85.3348 6.21332L85.3338 6.21232Z" fill="#5CC37B"/>
    <path fill-rule="evenodd" clip-rule="evenodd" d="M72.3968 21.1337C72.5118 20.6797 76.1168 10.3958 76.2418 10.2468L80.5917 21.1197L83.8607 21.1117L80.8867 12.7367L79.3027 8.66578C78.7287 7.2118 78.3578 6.0928 76.4618 6.0328C74.9878 5.9858 74.0238 7.0108 73.4398 8.60278L71.8998 12.8017L68.9648 21.1327H72.3978L72.3968 21.1337Z" fill="#5CC37B"/>
    <path fill-rule="evenodd" clip-rule="evenodd" d="M97.641 9.25648L102.209 9.26347L102.23 21.1364H105.742L105.774 9.25948L110.344 9.24348L110.261 6.1875L97.625 6.1905L97.641 9.25648Z" fill="#5CC37B"/>
    <path fill-rule="evenodd" clip-rule="evenodd" d="M204.188 9.25147L208.766 9.25447L208.763 21.1333H212.074L212.081 9.25746L216.617 9.25447V6.1875L204.188 6.1975V9.25147Z" fill="#5CC37B"/>
    <path fill-rule="evenodd" clip-rule="evenodd" d="M25.4952 0.932596C25.4952 0.932596 11.6933 -2.04438 5.1054 2.72957C-1.48353 7.50353 -0.82654 15.7825 2.21943 26.4113C5.2654 37.0412 8.77736 42.8272 10.4113 43.7582C12.0453 44.6892 12.7903 44.4202 14.3593 42.8202C15.9283 41.2192 17.3303 36.9502 19.4543 36.5382C21.5782 36.1263 23.9552 37.6382 25.3732 41.7042C26.7902 45.7701 27.3632 46.2791 28.7002 47.3931C30.0372 48.5071 35.3441 49.6931 39.2911 35.0513C43.238 20.4094 46.649 9.41951 41.883 4.34456C37.4951 -0.327392 30.4331 1.82459 27.2582 2.82758C24.6232 3.65958 22.5872 4.41157 21.2262 5.08756C20.1523 5.62155 17.3753 7.31554 17.3753 7.31554C17.3753 7.31554 18.8453 5.39555 21.0662 3.73457C23.7892 1.69959 25.4962 0.9306 25.4962 0.9306L25.4952 0.932596Z" fill="#5CC37B"/>
    <path fill-rule="evenodd" clip-rule="evenodd" d="M35.721 14.9016L35.065 13.4226C35.065 13.4226 35.062 13.4156 35.059 13.4116C35.04 13.3776 35.005 13.3116 34.974 13.2656C34.974 14.4366 35.661 16.8936 34.348 19.1046C32.252 22.6355 27.7171 19.2336 23.1011 20.3086C21.4861 20.6846 19.9281 21.8645 19.4681 23.3465C19.4351 23.4525 19.5201 23.5585 19.6311 23.5515C20.9031 23.4625 22.7531 22.9155 25.2841 24.1525C28.921 25.9315 29.113 30.6605 28.371 34.1994C27.8711 36.5884 27.0011 38.0644 26.6721 39.0834C26.6311 39.2084 26.7531 39.3244 26.8781 39.2814C28.566 38.7024 31.032 36.4044 32.031 35.2244C36.068 30.4545 37.982 23.1445 36.256 16.7726C36.081 16.1256 35.895 15.4356 35.727 14.9176C35.725 14.9126 35.723 14.9066 35.721 14.9016Z" fill="white"/>
    <path fill-rule="evenodd" clip-rule="evenodd" d="M17.4542 19.4493C18.3872 19.2923 20.0401 19.0513 21.0781 19.3923C21.1951 19.4303 21.3111 19.3303 21.2861 19.2093C20.8841 17.2723 18.0862 15.8993 15.8202 15.8993C11.4912 15.8993 6.15228 19.2863 5.63129 11.5004C5.58629 10.8224 5.77928 10.2464 5.90928 9.59741C5.94528 9.41741 5.69828 9.3294 5.61229 9.4914C5.58529 9.5414 5.55529 9.6004 5.52029 9.6694C4.5213 11.6604 4.2933 14.4964 4.0163 16.5523C3.39031 21.1903 5.60829 27.3942 8.69026 30.9312C10.4182 32.9142 11.4782 33.8562 13.8722 35.1482C13.9882 35.2112 14.1282 35.1131 14.1072 34.9822C13.9912 34.2632 13.7172 34.0092 13.4582 33.3452C11.5022 28.3202 10.7262 20.5763 17.4542 19.4473V19.4493Z" fill="white"/>
    <path fill-rule="evenodd" clip-rule="evenodd" d="M12.7637 14.2966C17.6686 13.1206 16.8156 7.51562 13.4257 7.51562H12.2287C10.6937 7.51562 8.63672 9.24361 8.63672 10.8676C8.63672 13.9176 10.9177 14.7386 12.7637 14.2966Z" fill="white"/>
    <path fill-rule="evenodd" clip-rule="evenodd" d="M31.0945 17.7579C34.0355 15.3559 31.1925 11.5859 28.0356 11.5859C26.3986 11.5859 24.6836 12.6399 24.6836 14.2199C24.6836 18.2939 29.0216 19.4519 31.0955 17.7579H31.0945Z" fill="white"/>
    <path fill-rule="evenodd" clip-rule="evenodd" d="M42.0729 8.32395C40.9659 2.04601 31.706 3.621 27.871 5.92297C27.7141 6.01697 27.814 6.25798 27.992 6.21498C28.505 6.09098 28.896 5.89997 29.608 5.74397C32.075 5.20298 35.458 5.04998 37.4609 5.99197C40.8119 7.56795 41.1739 10.1689 41.1999 13.7079C41.2009 13.8749 41.4239 13.9279 41.5019 13.7809C41.8049 13.2079 41.9329 12.4859 42.0679 11.7379C42.2549 10.7059 42.2569 9.36194 42.0739 8.32395H42.0729Z" fill="white"/>
</svg>
