<svg width="18" height="18" viewBox="0 0 18 18" fill="none" xmlns="http://www.w3.org/2000/svg">
<path d="M16.2291 12.2578L13.6891 11.9678C13.0791 11.8978 12.4791 12.1078 12.0491 12.5378L10.2091 14.3778C7.37906 12.9378 5.05906 10.6278 3.61906 7.78781L5.46906 5.93781C5.89906 5.50781 6.10906 4.90781 6.03906 4.29781L5.74906 1.77781C5.62906 0.767813 4.77906 0.0078125 3.75906 0.0078125H2.02906C0.899064 0.0078125 -0.0409359 0.947812 0.0290641 2.07781C0.559064 10.6178 7.38906 17.4378 15.9191 17.9678C17.0491 18.0378 17.9891 17.0978 17.9891 15.9678V14.2378C17.9991 13.2278 17.2391 12.3778 16.2291 12.2578Z" fill="#22833F"/>
</svg>
