<svg width="16" height="16" viewBox="0 0 16 16" fill="none" xmlns="http://www.w3.org/2000/svg">
    <g clip-path="url(#clip0_4791_13913)">
        <path d="M8.00065 1.33594C4.32065 1.33594 1.33398 4.3226 1.33398 8.0026C1.33398 11.6826 4.32065 14.6693 8.00065 14.6693C11.6807 14.6693 14.6673 11.6826 14.6673 8.0026C14.6673 4.3226 11.6807 1.33594 8.00065 1.33594ZM8.00065 13.3359C5.05398 13.3359 2.66732 10.9493 2.66732 8.0026C2.66732 5.05594 5.05398 2.66927 8.00065 2.66927C10.9473 2.66927 13.334 5.05594 13.334 8.0026C13.334 10.9493 10.9473 13.3359 8.00065 13.3359Z" fill="#323232"/>
        <path d="M7.99935 11.3307C9.8403 11.3307 11.3327 9.83834 11.3327 7.9974C11.3327 6.15645 9.8403 4.66406 7.99935 4.66406C6.1584 4.66406 4.66602 6.15645 4.66602 7.9974C4.66602 9.83834 6.1584 11.3307 7.99935 11.3307Z" fill="#323232"/>
    </g>
    <defs>
        <clipPath id="clip0_4791_13913">
            <rect width="16" height="16" fill="white"/>
        </clipPath>
    </defs>
</svg>
