<svg width="203" height="44" viewBox="0 0 203 44" fill="none" xmlns="http://www.w3.org/2000/svg">
<path d="M143 0C151.837 0 159 7.16344 159 16C159 17.6569 160.343 19 162 19H174.727C177.464 19 179.738 17.0258 181.375 14.8315C183.563 11.8989 187.06 10 191 10C197.627 10 203 15.3726 203 22C203 28.6274 197.627 34 191 34C187.06 34 183.563 32.1011 181.375 29.1685C179.738 26.9742 177.464 25 174.727 25H162C160.343 25 159 26.3431 159 28C159 36.8366 151.837 44 143 44H16C7.16344 44 2.5772e-07 36.8366 0 28V16C2.5772e-07 7.16344 7.16344 0 16 0H143Z" fill="#5CC37B"/>
</svg>
