<svg width="203" height="44" viewBox="0 0 203 44" fill="none" xmlns="http://www.w3.org/2000/svg">
<path d="M60 0C51.1634 0 44 7.16344 44 16C44 17.6569 42.6569 19 41 19H28.2733C25.5356 19 23.2616 17.0258 21.6246 14.8315C19.4368 11.8989 15.9401 10 12 10C5.37259 10 0 15.3726 0 22C0 28.6274 5.37259 34 12 34C15.9401 34 19.4368 32.1011 21.6246 29.1685C23.2616 26.9742 25.5356 25 28.2733 25H41C42.6569 25 44 26.3431 44 28C44 36.8366 51.1634 44 60 44H187C195.837 44 203 36.8366 203 28V16C203 7.16344 195.837 0 187 0H60Z" fill="#F7F6FB"/>
</svg>
