<svg width="322" height="52" viewBox="0 0 322 52" fill="none" xmlns="http://www.w3.org/2000/svg">
<path d="M84 0C75.1634 0 68 7.16344 68 16C68 19.3137 65.3137 22 62 22H43.6091C40.4388 22 37.9235 19.4461 36.6435 16.5457C34.1626 10.9238 28.5399 7 22 7H16C7.16345 7 0 14.1634 0 23V29C0 37.8366 7.16345 45 16 45H22C28.5399 45 34.1626 41.0762 36.6435 35.4543C37.9235 32.5539 40.4388 30 43.6091 30H62C65.3137 30 68 32.6863 68 36C68 44.8366 75.1634 52 84 52H306C314.837 52 322 44.8366 322 36V16C322 7.16344 314.837 0 306 0H84Z" fill="#5CC37B"/>
</svg>
