<svg width="322" height="52" viewBox="0 0 322 52" fill="none" xmlns="http://www.w3.org/2000/svg">
<path d="M238 0C246.837 0 254 7.16344 254 16C254 19.3137 256.686 22 260 22H278.391C281.561 22 284.077 19.4461 285.357 16.5457C287.837 10.9238 293.46 7 300 7H306C314.837 7 322 14.1634 322 23V29C322 37.8366 314.837 45 306 45H300C293.46 45 287.837 41.0762 285.357 35.4543C284.077 32.5539 281.561 30 278.391 30H260C256.686 30 254 32.6863 254 36C254 44.8366 246.837 52 238 52H16C7.16344 52 3.22149e-07 44.8366 0 36V16C0 7.16344 7.16344 0 16 0H238Z" fill="#F7F6FB"/>
</svg>
