<svg width="12" height="12" viewBox="0 0 12 12" fill="none" xmlns="http://www.w3.org/2000/svg">
<path d="M7.55266 1.2065L7.04712 1.2904C6.68126 1.3865 6.32243 1.51845 6.00532 1.72728C5.67813 1.52829 5.32376 1.38368 4.95157 1.2904L4.44602 1.2065C4.29907 1.21423 4.14251 1.19595 3.99696 1.2065C1.93774 1.35556 1.18235 3.50525 1.86837 5.25181C2.07509 5.77822 2.43134 6.194 2.66571 6.69954C3.15743 7.75986 3.05829 8.89423 3.50149 9.94212C3.90204 10.8897 4.68298 11.1724 5.16063 10.086C5.46907 9.38454 5.48196 8.71775 5.63079 7.99306C5.66688 7.81704 5.87126 7.07642 6.14923 7.42634C6.39837 7.73993 6.42087 8.44517 6.49188 8.8422C6.60602 9.47853 7.06259 11.4527 8.07485 10.5859C8.84009 9.93087 8.83188 8.02376 9.1804 7.07056C9.4722 6.27275 10.0462 5.68611 10.2606 4.85806C10.6989 3.1654 9.88845 1.3429 8.00173 1.20626H7.55266V1.2065Z" fill="#FFFFFF"/>
</svg>
