<svg width="24" height="24" viewBox="0 0 24 24" fill="none" xmlns="http://www.w3.org/2000/svg">
    <path d="M12.3822 0.976562C14.4739 1.15492 17.9721 1.77604 17.1788 4.84948C16.9674 5.6696 16.5414 6.50119 16.3273 7.32934C17.1738 7.59315 17.7003 8.4236 17.7651 9.3263C17.814 10.0082 17.5219 11.0692 18.4206 11.2602C19.0591 11.3955 19.3649 11.294 19.9403 11.7763C20.2356 12.0241 20.6836 12.7559 20.6836 13.1465V17.976H19.4505V13.2755C19.4505 13.2468 19.3336 13.0008 19.304 12.9561C18.9658 12.4416 18.3679 12.6177 17.848 12.4164C17.1453 12.144 16.5903 11.4007 16.531 10.6156C16.4761 9.89179 16.7819 8.80039 15.8963 8.53084C15.467 9.7312 15.2463 10.9855 14.1203 11.7001C13.9007 11.8394 13.2567 12.1377 13.019 12.1377H12.2998V10.592H11.0668V12.1377H10.3476C10.1099 12.1377 9.46592 11.8394 9.24632 11.7001C8.12032 10.9855 7.89962 9.73178 7.47031 8.53084C6.58477 8.79982 6.89057 9.89121 6.83567 10.6156C6.76814 11.5074 6.07146 12.3183 5.24083 12.5127C4.78186 12.62 4.38164 12.472 4.06323 12.9566C4.03413 13.0014 3.91664 13.2474 3.91664 13.2761V17.9766H2.68359V13.147C2.68359 12.7565 3.13158 12.0247 3.42694 11.7769C3.9946 11.3009 4.31467 11.395 4.94656 11.2608C5.84527 11.0698 5.55321 10.0088 5.60207 9.32688C5.6674 8.41614 6.19004 7.59889 7.03989 7.32991C6.63363 5.7734 5.43462 4.10105 6.5705 2.5692C7.3907 1.4629 9.71791 1.04825 10.9844 0.977136H12.3816L12.3822 0.976562Z" fill="white"/>
    <path d="M14.6836 12.9766L13.8155 20.9167C13.5877 23.4644 10.177 23.7353 9.60654 21.2434L8.68359 12.9766C8.98832 13.1041 9.27821 13.276 9.59666 13.3716C10.4889 13.6402 13.009 13.6306 13.8941 13.3295C14.1686 13.2361 14.4124 13.0745 14.6836 12.9766Z" fill="white"/>
</svg>
