<svg width="24" height="24" viewBox="0 0 24 24" fill="none" xmlns="http://www.w3.org/2000/svg">
    <path d="M11.7273 20.9723C11.5055 20.9503 11.1034 20.828 10.8962 20.7333C10.2315 20.4295 9.63242 19.7273 9.48148 19.0087H10.4991V17.9569H9.30617L8.95508 14.7656H15.0605L14.8852 16.3434H13.6571V17.3428L13.7096 17.3953H14.7446C14.6654 18.0248 14.678 18.7289 14.4455 19.3233C14.1095 20.1839 13.2155 20.8809 12.2884 20.9719C12.1426 20.9864 11.8726 20.9864 11.7268 20.9719L11.7273 20.9723Z" fill="white"/>
    <path d="M8.10701 3.03316C9.40451 2.95863 10.7822 3.16207 11.9944 3.61863C13.4292 3.10676 15.0656 2.88082 16.583 3.09785C18.2409 3.33504 18.4411 4.27066 18.3614 5.77675C18.2817 7.28004 17.7361 8.9891 16.5169 9.92988L7.44795 9.91254C6.43545 9.04535 5.91654 7.77457 5.73279 6.47144C5.41733 4.23176 5.67795 3.17191 8.10654 3.03269L8.10701 3.03316Z" fill="white"/>
    <path d="M15.9377 11.0156L15.2148 13.718L8.78313 13.7123L8.07812 11.0156H15.9377Z" fill="white"/>
</svg>
